<svg width="156" height="110" viewBox="0 0 156 110" fill="none" xmlns="http://www.w3.org/2000/svg">
<circle cx="4" cy="4" r="4" fill="black"/>
<circle cx="4" cy="38" r="4" fill="black"/>
<circle cx="4" cy="72" r="4" fill="black"/>
<circle cx="4" cy="106" r="4" fill="black"/>
<circle cx="41" cy="4" r="4" fill="black"/>
<circle cx="41" cy="38" r="4" fill="black"/>
<circle cx="41" cy="72" r="4" fill="black"/>
<circle cx="41" cy="106" r="4" fill="black"/>
<circle cx="78" cy="4" r="4" fill="black"/>
<circle cx="78" cy="38" r="4" fill="black"/>
<circle cx="78" cy="72" r="4" fill="black"/>
<circle cx="78" cy="106" r="4" fill="black"/>
<circle cx="115" cy="4" r="4" fill="black"/>
<circle cx="115" cy="38" r="4" fill="black"/>
<circle cx="115" cy="72" r="4" fill="black"/>
<circle cx="115" cy="106" r="4" fill="black"/>
<circle cx="152" cy="4" r="4" fill="black"/>
<circle cx="152" cy="38" r="4" fill="black"/>
<circle cx="152" cy="72" r="4" fill="black"/>
<circle cx="152" cy="106" r="4" fill="black"/>
</svg>
