<svg width="162" height="162" viewBox="0 0 162 162" fill="none" xmlns="http://www.w3.org/2000/svg">
<circle cx="5.64478" cy="89.092" r="4" transform="rotate(-48.7446 5.64478 89.092)" fill="black"/>
<circle cx="31.2052" cy="111.512" r="4" transform="rotate(-48.7446 31.2052 111.512)" fill="black"/>
<circle cx="56.7656" cy="133.932" r="4" transform="rotate(-48.7446 56.7656 133.932)" fill="black"/>
<circle cx="82.3261" cy="156.352" r="4" transform="rotate(-48.7446 82.3261 156.352)" fill="black"/>
<circle cx="30.0432" cy="61.2763" r="4" transform="rotate(-48.7446 30.0432 61.2763)" fill="black"/>
<circle cx="55.6036" cy="83.6965" r="4" transform="rotate(-48.7446 55.6036 83.6965)" fill="black"/>
<circle cx="81.1641" cy="106.117" r="4" transform="rotate(-48.7446 81.1641 106.117)" fill="black"/>
<circle cx="106.725" cy="128.537" r="4" transform="rotate(-48.7446 106.725 128.537)" fill="black"/>
<circle cx="54.4416" cy="33.4604" r="4" transform="rotate(-48.7446 54.4416 33.4604)" fill="black"/>
<circle cx="80.0021" cy="55.8806" r="4" transform="rotate(-48.7446 80.0021 55.8806)" fill="black"/>
<circle cx="105.562" cy="78.3007" r="4" transform="rotate(-48.7446 105.562 78.3007)" fill="black"/>
<circle cx="131.123" cy="100.721" r="4" transform="rotate(-48.7446 131.123 100.721)" fill="black"/>
<circle cx="78.84" cy="5.64472" r="4" transform="rotate(-48.7446 78.84 5.64472)" fill="black"/>
<circle cx="104.4" cy="28.0649" r="4" transform="rotate(-48.7446 104.4 28.0649)" fill="black"/>
<circle cx="129.961" cy="50.4851" r="4" transform="rotate(-48.7446 129.961 50.4851)" fill="black"/>
<circle cx="155.521" cy="72.9052" r="4" transform="rotate(-48.7446 155.521 72.9052)" fill="black"/>
</svg>
